<?xml version="1.0" encoding="utf-8"?>
<!-- Generator: Adobe Illustrator 16.0.0, SVG Export Plug-In . SVG Version: 6.00 Build 0)  -->
<!DOCTYPE svg PUBLIC "-//W3C//DTD SVG 1.1//EN" "http://www.w3.org/Graphics/SVG/1.1/DTD/svg11.dtd">
<svg version="1.1" id="Isolation_Mode" xmlns="http://www.w3.org/2000/svg" xmlns:xlink="http://www.w3.org/1999/xlink" x="0px"
	 y="0px" width="65.085px" height="63.795px" viewBox="0 0 65.085 63.795" enable-background="new 0 0 65.085 63.795"
	 xml:space="preserve">
<g>
	<g>
		<path fill="#FFFFFF" stroke="#A7A9AC" d="M43.366,61.184c0,1.166-0.946,2.111-2.112,2.111H23.746
			c-1.166,0-2.111-0.945-2.111-2.111V49.833c0-1.166,0.945-2.111,2.111-2.111h17.508c1.166,0,2.112,0.945,2.112,2.111V61.184z"/>
	</g>
</g>
<polygon fill="#BCBEC0" points="26.186,58.719 24.276,58.719 23.681,53.708 26.662,53.708 "/>
<circle fill="#BCBEC0" cx="25.231" cy="60.15" r="0.955"/>
<rect x="28.703" y="56.497" fill="#BCBEC0" width="11.613" height="1.007"/>
<rect x="28.703" y="58.215" fill="#BCBEC0" width="11.613" height="1.008"/>
<rect x="28.703" y="59.932" fill="#BCBEC0" width="11.613" height="1.008"/>
<g>
	<path fill="#A7A9AC" d="M21.294,58.238C8.757,55.391,0,44.408,0,31.532c0-5.423,1.583-10.666,4.577-15.161l1.17,0.781
		c-2.839,4.263-4.34,9.235-4.34,14.38c0,12.215,8.306,22.632,20.198,25.333L21.294,58.238L21.294,58.238z"/>
</g>
<g>
	<path fill="#A7A9AC" d="M43.792,58.238l-0.312-1.373c11.892-2.701,20.197-13.118,20.197-25.333c0-5.145-1.501-10.117-4.34-14.38
		l1.171-0.781c2.994,4.495,4.576,9.738,4.576,15.161C65.085,44.408,56.329,55.391,43.792,58.238L43.792,58.238z"/>
</g>
<g>
	<polygon fill="#A7A9AC" points="33.598,47.722 32.189,47.722 32.189,28.102 33.598,28.102 33.598,47.722 	"/>
</g>
<circle fill="#F47C27" cx="5.064" cy="16.762" r="2.288"/>
<circle fill="#B0D238" cx="32.893" cy="27.554" r="2.288"/>
<circle fill="#6CC4EF" cx="59.757" cy="16.762" r="2.288"/>
<g>
	<path fill="#A1A3A6" d="M53.154,15.341c0,0-4.438-2.571-6.829-3.28l0.068-2.151c0,0,1.033-0.308,1.033-2.067
		c0-0.271,0.469,0.543,0.472-2.196c0-0.179-0.507-0.146-0.507-0.146V3.371c0,0-0.354-2.748-3.504-2.748
		c-3.146,0-3.5,2.748-3.5,2.748V5.5c0,0-0.511-0.033-0.511,0.146c0.001,2.739,0.472,1.926,0.472,2.196
		c0,1.76,1.033,2.067,1.033,2.067l0.068,2.151c-0.977,0.288-2.288,0.889-3.509,1.497c2.918,1.157,6.91,3.471,6.91,3.471v2.656h8.303
		V15.341z"/>
	<path fill="#A1A3A6" d="M12.633,15.341c0,0,4.437-2.571,6.827-3.28l-0.067-2.151c0,0-1.034-0.308-1.034-2.067
		c0-0.271-0.469,0.543-0.472-2.196c0-0.179,0.51-0.146,0.51-0.146V3.371c0,0,0.354-2.748,3.501-2.748s3.501,2.748,3.501,2.748V5.5
		c0,0,0.51-0.033,0.51,0.146c-0.003,2.739-0.472,1.926-0.472,2.196c0,1.76-1.034,2.067-1.034,2.067l-0.067,2.151
		c0.976,0.288,2.288,0.889,3.509,1.497c-2.915,1.157-6.91,3.471-6.91,3.471v2.656h-8.301V15.341z"/>
	<path fill="#A1A3A6" d="M37.004,14.031c-0.429-0.17-0.844-0.321-1.212-0.429l0.079-2.558c0,0,1.232-0.369,1.232-2.459
		c0-0.324,0.558,0.641,0.561-2.616c0-0.209-0.605-0.173-0.605-0.173V3.268c0,0-0.422-3.268-4.166-3.268s-4.166,3.268-4.166,3.268
		v2.529c0,0-0.604-0.036-0.604,0.173c0.003,3.257,0.559,2.292,0.559,2.616c0,2.09,1.231,2.459,1.231,2.459l0.082,2.558
		c-2.848,0.843-8.121,3.901-8.121,3.901v5.168h11.019h11.019V20.16v-2.656C43.911,17.504,39.921,15.189,37.004,14.031z"/>
</g>
<path fill="#A7A9AC" d="M43.366,51.951v-2.118c0-1.166-0.946-2.111-2.112-2.111H23.746c-1.166,0-2.111,0.945-2.111,2.111v2.118
	H43.366z"/>
</svg>
